<svg width="123" height="54" viewBox="0 0 123 54" fill="none" xmlns="http://www.w3.org/2000/svg">
<path d="M53.0828 8.88867H56.3845L60.3026 15.0651L64.1995 8.88867H67.48V22.6961H64.1003V14.6646L60.8978 19.5341H59.6437L56.4837 14.6787V22.6891H53.0828V8.88867Z" fill="#020B26"/>
<path d="M78.2071 21.811C77.4419 22.6121 76.3791 23.0126 75.0259 23.0126C74.0339 23.0126 73.127 22.7596 72.3122 22.2607C71.4974 21.7618 70.8597 21.0732 70.3921 20.1879C69.9245 19.3095 69.6978 18.3188 69.6978 17.2296C69.6978 16.1405 69.9316 15.1497 70.3921 14.2714C70.8526 13.3931 71.4974 12.6974 72.3122 12.1915C73.127 11.6856 74.0339 11.4326 75.0259 11.4326C76.3933 11.4326 77.449 11.8402 78.2071 12.6553V11.7488H81.4876V22.6964H78.2071V21.811ZM77.3569 19.0355C77.8387 18.5577 78.0796 17.9534 78.0796 17.2296C78.0796 16.5059 77.8387 15.9016 77.364 15.4238C76.8893 14.946 76.287 14.707 75.5714 14.707C74.8558 14.707 74.2607 14.946 73.7789 15.4238C73.3041 15.9016 73.0632 16.5059 73.0632 17.2296C73.0632 17.9534 73.3041 18.5577 73.7859 19.0355C74.2677 19.5133 74.8629 19.7522 75.5643 19.7522C76.2658 19.7522 76.8609 19.5133 77.3427 19.0355H77.3569Z" fill="#020B26"/>
<path d="M84.0737 8.23535H87.4746V10.779H84.0737V8.23535ZM84.0879 11.7487H87.4888V22.6962H84.0879V11.7487Z" fill="#020B26"/>
<path d="M96.6997 15.1707C96.3808 14.8194 95.9628 14.6508 95.4456 14.6508C94.8646 14.6508 94.3899 14.8264 94.0214 15.1848C93.653 15.5431 93.4759 16.0069 93.4759 16.5831V22.6963H90.075V11.7487H93.4759V12.6552C93.8372 12.2757 94.2482 11.9806 94.73 11.7698C95.2118 11.559 95.7148 11.4536 96.2604 11.4536C97.1106 11.4536 97.8546 11.6644 98.5064 12.086C99.1582 12.5076 99.6613 13.0979 100.03 13.8497C100.391 14.6086 100.575 15.4729 100.575 16.4426V22.6963H97.1744V16.5409C97.1744 15.9788 97.0185 15.5221 96.6997 15.1707Z" fill="#020B26"/>
<path d="M53.0048 37.5856V33.995C54.2235 34.508 55.2013 34.7609 55.9311 34.7609C56.8096 34.7609 57.2418 34.3955 57.2418 33.6577C57.2418 33.3837 57.1214 33.1307 56.8734 32.9059C56.6254 32.681 56.2286 32.3719 55.6689 31.9784C55.0737 31.5849 54.5778 31.2195 54.1739 30.8822C53.7771 30.5449 53.437 30.1303 53.1465 29.6314C52.8631 29.1326 52.7214 28.5634 52.7214 27.9169C52.7214 26.5116 53.1678 25.4436 54.0605 24.7198C54.9533 23.9961 56.1365 23.6377 57.6103 23.6377C58.4463 23.6377 59.2399 23.7642 59.998 24.0101V27.4813C59.6012 27.2424 59.1903 27.0667 58.7722 26.9402C58.3542 26.8138 57.9645 26.7505 57.6103 26.7505C57.2277 26.7505 56.9159 26.8278 56.6821 26.9894C56.4483 27.144 56.3349 27.3899 56.3349 27.7202C56.3349 27.9591 56.4554 28.198 56.6892 28.4369C56.9301 28.6828 57.3056 28.992 57.8228 29.3715C58.4321 29.8071 58.9423 30.2147 59.3461 30.5941C59.75 30.9735 60.1043 31.4303 60.4018 31.9643C60.6994 32.4983 60.8482 33.0956 60.8482 33.7702C60.8482 35.2177 60.4018 36.2857 59.5162 36.9884C58.6305 37.684 57.426 38.0354 55.9169 38.0354C54.9604 38.0354 53.9897 37.8808 52.9907 37.5786L53.0048 37.5856Z" fill="#020B26"/>
<path d="M64.1216 36.8968C63.4697 36.145 63.1438 35.0418 63.1438 33.5802V24.5088H66.5235V26.7995H68.4932V29.9334H66.5235V33.4678C66.5235 33.8894 66.6297 34.1986 66.8423 34.4023C67.0549 34.6061 67.3524 34.7115 67.735 34.7115H68.4932V38.0281H67.4587C65.8787 38.0281 64.7663 37.6557 64.1145 36.9038L64.1216 36.8968Z" fill="#020B26"/>
<path d="M70.7251 26.7995H74.0906V28.0222C74.6999 27.0103 75.5572 26.5044 76.6555 26.5044C76.9318 26.5044 77.2294 26.5466 77.5482 26.6238V29.8561H76.4712C75.7415 29.8561 75.1746 30.0599 74.7637 30.4604C74.3527 30.8609 74.1473 31.4652 74.1473 32.2663V37.7471H70.7251V26.7995Z" fill="#020B26"/>
<path d="M81.8346 37.2904C80.9419 36.7775 80.2334 36.0818 79.7091 35.1965C79.1848 34.3181 78.9226 33.3414 78.9226 32.2804C78.9226 31.2194 79.1848 30.2356 79.7091 29.3503C80.2334 28.4649 80.9419 27.7623 81.8346 27.2493C82.7274 26.7364 83.7122 26.4834 84.7892 26.4834C85.8662 26.4834 86.8156 26.7434 87.68 27.2493C88.5515 27.7623 89.2317 28.4649 89.7418 29.3503C90.2448 30.2356 90.4999 31.2194 90.4999 32.3015C90.4999 32.5755 90.4645 32.9128 90.4007 33.3063H82.1677C82.3519 33.8965 82.6849 34.3744 83.1596 34.7257C83.6343 35.077 84.1799 35.2597 84.7892 35.2597C85.3206 35.2597 85.774 35.1613 86.1496 34.9716C86.5251 34.7819 86.8085 34.5008 86.9927 34.1355H90.2732C89.9827 35.33 89.3308 36.2856 88.3247 36.9953C87.3186 37.705 86.1354 38.0634 84.7821 38.0634C83.7052 38.0634 82.7203 37.8034 81.8276 37.2975L81.8346 37.2904ZM87.3116 31.2194C87.1273 30.6572 86.8014 30.2005 86.348 29.8703C85.8874 29.533 85.3702 29.3643 84.7892 29.3643C84.2082 29.3643 83.6414 29.533 83.1808 29.8703C82.7132 30.2075 82.3944 30.6643 82.2031 31.2405L87.3116 31.2194Z" fill="#020B26"/>
<path d="M100.738 36.8618C99.9729 37.6628 98.9102 38.0634 97.5569 38.0634C96.5649 38.0634 95.658 37.8104 94.8432 37.3115C94.0284 36.8126 93.3907 36.124 92.9231 35.2386C92.4555 34.3603 92.2288 33.3695 92.2288 32.2804C92.2288 31.1913 92.4626 30.2005 92.9231 29.3222C93.3837 28.4438 94.0284 27.7482 94.8432 27.2423C95.658 26.7364 96.5649 26.4834 97.5569 26.4834C98.9243 26.4834 99.98 26.8909 100.738 27.706V26.7996H104.019V37.7472H100.738V36.8618ZM99.895 34.0863C100.377 33.6084 100.618 33.0042 100.618 32.2804C100.618 31.5567 100.377 30.9524 99.9021 30.4746C99.4274 29.9967 98.8251 29.7578 98.1095 29.7578C97.3939 29.7578 96.7988 29.9967 96.317 30.4746C95.8422 30.9524 95.6013 31.5567 95.6013 32.2804C95.6013 33.0042 95.8422 33.6084 96.324 34.0863C96.8058 34.5641 97.401 34.803 98.1024 34.803C98.8039 34.803 99.399 34.5641 99.8808 34.0863H99.895Z" fill="#020B26"/>
<path d="M119.188 30.1021C118.905 29.821 118.558 29.6805 118.147 29.6805C117.672 29.6805 117.275 29.821 116.97 30.1021C116.666 30.3831 116.51 30.7415 116.51 31.1771V37.7471H113.109V31.1771C113.109 30.7415 112.967 30.3831 112.684 30.1021C112.4 29.821 112.039 29.6805 111.6 29.6805C111.132 29.6805 110.757 29.821 110.459 30.095C110.162 30.3691 110.013 30.7345 110.013 31.1771V37.7471H106.612V26.7995H110.013V27.6287C110.36 27.2703 110.764 26.9963 111.224 26.7995C111.685 26.6028 112.188 26.5044 112.719 26.5044C113.251 26.5044 113.754 26.6168 114.228 26.8487C114.703 27.0806 115.114 27.4108 115.461 27.8465C115.858 27.4249 116.354 27.0946 116.942 26.8628C117.53 26.6238 118.147 26.5044 118.784 26.5044C119.606 26.5044 120.336 26.6941 120.974 27.0736C121.611 27.453 122.107 27.9941 122.469 28.6897C122.83 29.3853 123.007 30.1793 123.007 31.0788V37.7471H119.627V31.1771C119.627 30.7415 119.486 30.3831 119.202 30.1021H119.188Z" fill="#020B26"/>
<path d="M0 48.2873C0 50.5569 1.36037 52.6157 3.4576 53.5222C5.56192 54.4286 7.99925 54.0211 9.67846 52.4682L24.0403 39.237L38.8201 43.7762C38.9335 43.8113 39.0468 43.8324 39.1531 43.8605C39.2098 43.8746 39.2736 43.8886 39.3302 43.9027C39.479 43.9308 39.6349 43.9589 39.7837 43.9729C39.8687 43.98 39.9467 43.994 40.0317 44.001C40.1592 44.0151 40.2868 44.0151 40.4143 44.0151C40.5206 44.0151 40.6268 44.0151 40.7331 44.0151C40.8323 44.0151 40.9315 44.001 41.0307 43.994C41.1582 43.98 41.2929 43.9729 41.4204 43.9519C41.4983 43.9378 41.5692 43.9237 41.6471 43.9097C41.7959 43.8816 41.9447 43.8465 42.0935 43.8043C42.1502 43.7902 42.2069 43.7692 42.2635 43.7481C42.4265 43.6989 42.5824 43.6427 42.7453 43.5794C42.7878 43.5654 42.8233 43.5443 42.8587 43.5232C43.0287 43.4459 43.1917 43.3686 43.3547 43.2773C43.3759 43.2632 43.3972 43.2492 43.4255 43.2351C43.5672 43.1508 43.716 43.0665 43.8506 42.9751C45.381 41.9071 46.295 40.1574 46.295 38.3024V5.71971C46.295 3.35875 44.8638 1.27183 42.6461 0.400521C41.9518 0.12648 41.2291 0 40.5206 0C38.9618 0 37.4385 0.632401 36.3261 1.81991L22.1485 16.8781L7.70167 11.7556C5.93744 11.1303 3.97483 11.3973 2.44441 12.4653C0.921083 13.5404 0.0141705 15.283 0.0141705 17.1451V17.4191C0.0141705 17.4824 0 17.5456 0 17.6088V48.2943V48.2873ZM7.04983 45.3572V32.5335L17.1109 36.096L7.04983 45.3572ZM39.2381 36.5036L7.064 25.1063V19.4217L39.2452 30.819V36.5036H39.2381ZM39.2523 8.95901V23.3988L29.0566 19.7871L39.2523 8.95901Z" fill="#F20530"/>
</svg>